<svg width="1406" height="384" viewBox="0 0 1406 384" fill="none" xmlns="http://www.w3.org/2000/svg">
<rect width="1406" height="384" rx="25" fill="white"/>
<circle cx="102.062" cy="102.062" r="102.062" transform="matrix(-0.258819 -0.965926 -0.965926 0.258819 357 256.169)" fill="#131313" stroke="#232323" stroke-width="5"/>
<circle cx="61.1777" cy="61.1777" r="61.1777" transform="matrix(-1 0 0 1 293.136 122.781)" fill="#1B1B1B"/>
<circle cx="61.1777" cy="61.1777" r="61.1777" transform="matrix(-1 0 0 1 293.136 122.781)" fill="#1B1B1B"/>
<circle cx="46.5341" cy="46.5341" r="46.5341" transform="matrix(-1 0 0 1 278.167 137.099)" fill="#1B1B1B"/>
<circle cx="46.5341" cy="46.5341" r="46.5341" transform="matrix(-1 0 0 1 278.167 137.099)" fill="#333333"/>
<circle cx="295.74" cy="247.74" r="4.55578" fill="#FF4A4A"/>
<path d="M592.75 155.75C592.75 170.25 587.75 182.333 577.75 192C567.917 201.5 552.833 206.25 532.5 206.25H499V279H476.25V104.75H532.5C552.167 104.75 567.083 109.5 577.25 119C587.583 128.5 592.75 140.75 592.75 155.75ZM532.5 187.5C545.167 187.5 554.5 184.75 560.5 179.25C566.5 173.75 569.5 165.917 569.5 155.75C569.5 134.25 557.167 123.5 532.5 123.5H499V187.5H532.5ZM632.775 119.75C628.442 119.75 624.775 118.25 621.775 115.25C618.775 112.25 617.275 108.583 617.275 104.25C617.275 99.9167 618.775 96.25 621.775 93.25C624.775 90.25 628.442 88.75 632.775 88.75C636.942 88.75 640.442 90.25 643.275 93.25C646.275 96.25 647.775 99.9167 647.775 104.25C647.775 108.583 646.275 112.25 643.275 115.25C640.442 118.25 636.942 119.75 632.775 119.75ZM643.775 142V279H621.025V142H643.775Z" fill="#FF7D7D"/>
<path d="M736.799 104.75C755.799 104.75 772.216 108.333 786.049 115.5C800.049 122.5 810.716 132.583 818.049 145.75C825.549 158.917 829.299 174.417 829.299 192.25C829.299 210.083 825.549 225.583 818.049 238.75C810.716 251.75 800.049 261.75 786.049 268.75C772.216 275.583 755.799 279 736.799 279H682.549V104.75H736.799ZM736.799 260.25C759.299 260.25 776.465 254.333 788.299 242.5C800.132 230.5 806.049 213.75 806.049 192.25C806.049 170.583 800.049 153.667 788.049 141.5C776.216 129.333 759.132 123.25 736.799 123.25H705.299V260.25H736.799ZM850.807 210C850.807 196 853.64 183.75 859.307 173.25C864.973 162.583 872.723 154.333 882.557 148.5C892.557 142.667 903.64 139.75 915.807 139.75C927.807 139.75 938.223 142.333 947.057 147.5C955.89 152.667 962.473 159.167 966.807 167V142H989.807V279H966.807V253.5C962.307 261.5 955.557 268.167 946.557 273.5C937.723 278.667 927.39 281.25 915.557 281.25C903.39 281.25 892.39 278.25 882.557 272.25C872.723 266.25 864.973 257.833 859.307 247C853.64 236.167 850.807 223.833 850.807 210ZM966.807 210.25C966.807 199.917 964.723 190.917 960.557 183.25C956.39 175.583 950.723 169.75 943.557 165.75C936.557 161.583 928.807 159.5 920.307 159.5C911.807 159.5 904.057 161.5 897.057 165.5C890.057 169.5 884.473 175.333 880.307 183C876.14 190.667 874.057 199.667 874.057 210C874.057 220.5 876.14 229.667 880.307 237.5C884.473 245.167 890.057 251.083 897.057 255.25C904.057 259.25 911.807 261.25 920.307 261.25C928.807 261.25 936.557 259.25 943.557 255.25C950.723 251.083 956.39 245.167 960.557 237.5C964.723 229.667 966.807 220.583 966.807 210.25ZM1076.75 281.25C1066.25 281.25 1056.84 279.5 1048.5 276C1040.17 272.333 1033.59 267.333 1028.75 261C1023.92 254.5 1021.25 247.083 1020.75 238.75H1044.25C1044.92 245.583 1048.09 251.167 1053.75 255.5C1059.59 259.833 1067.17 262 1076.5 262C1085.17 262 1092 260.083 1097 256.25C1102 252.417 1104.5 247.583 1104.5 241.75C1104.5 235.75 1101.84 231.333 1096.5 228.5C1091.17 225.5 1082.92 222.583 1071.75 219.75C1061.59 217.083 1053.25 214.417 1046.75 211.75C1040.42 208.917 1034.92 204.833 1030.25 199.5C1025.75 194 1023.5 186.833 1023.5 178C1023.5 171 1025.59 164.583 1029.75 158.75C1033.92 152.917 1039.84 148.333 1047.5 145C1055.17 141.5 1063.92 139.75 1073.75 139.75C1088.92 139.75 1101.17 143.583 1110.5 151.25C1119.84 158.917 1124.84 169.417 1125.5 182.75H1102.75C1102.25 175.583 1099.34 169.833 1094 165.5C1088.84 161.167 1081.84 159 1073 159C1064.84 159 1058.34 160.75 1053.5 164.25C1048.67 167.75 1046.25 172.333 1046.25 178C1046.25 182.5 1047.67 186.25 1050.5 189.25C1053.5 192.083 1057.17 194.417 1061.5 196.25C1066 197.917 1072.17 199.833 1080 202C1089.84 204.667 1097.84 207.333 1104 210C1110.17 212.5 1115.42 216.333 1119.75 221.5C1124.25 226.667 1126.59 233.417 1126.75 241.75C1126.75 249.25 1124.67 256 1120.5 262C1116.34 268 1110.42 272.75 1102.75 276.25C1095.25 279.583 1086.59 281.25 1076.75 281.25ZM1226.87 139.5C1237.2 139.5 1246.53 141.75 1254.87 146.25C1263.2 150.583 1269.7 157.167 1274.37 166C1279.2 174.833 1281.62 185.583 1281.62 198.25V279H1259.12V201.5C1259.12 187.833 1255.7 177.417 1248.87 170.25C1242.03 162.917 1232.7 159.25 1220.87 159.25C1208.87 159.25 1199.28 163 1192.12 170.5C1185.12 178 1181.62 188.917 1181.62 203.25V279H1158.87V94H1181.62V161.5C1186.12 154.5 1192.28 149.083 1200.12 145.25C1208.12 141.417 1217.03 139.5 1226.87 139.5Z" fill="black"/>
</svg>
